<svg width="800" height="800" viewBox="0 0 256 256" fill="none" xmlns="http://www.w3.org/2000/svg">
  <path fill="#326CE5" d="m128 10 98 57v122l-98 57-98-57V67l98-57Z"/>
  <path fill="#fff" d="m128 45 11.5 37.2 35-16.8-16.8 35L195 112l-37.2 11.5 16.8 35-35-16.8L128 179l-11.5-37.3-35 16.8 16.8-35L61 112l37.2-11.6-16.8-35 35 16.8L128 45Z"/>
  <circle cx="128" cy="112" r="42" fill="#326CE5"/>
  <path fill="#fff" d="M128 84a28 28 0 1 1 0 56 28 28 0 0 1 0-56Zm0 15a13 13 0 1 0 0 26 13 13 0 0 0 0-26Z"/>
</svg>
