<?xml version="1.0" encoding="UTF-8" standalone="no"?>
<!-- Created with Inkscape (http://www.inkscape.org/) -->
<svg
   xmlns:dc="http://purl.org/dc/elements/1.1/"
   xmlns:cc="http://creativecommons.org/ns#"
   xmlns:rdf="http://www.w3.org/1999/02/22-rdf-syntax-ns#"
   xmlns:svg="http://www.w3.org/2000/svg"
   xmlns="http://www.w3.org/2000/svg"
   xmlns:sodipodi="http://sodipodi.sourceforge.net/DTD/sodipodi-0.dtd"
   xmlns:inkscape="http://www.inkscape.org/namespaces/inkscape"
   width="744.09448"
   height="630"
   id="svg2"
   sodipodi:version="0.32"
   inkscape:version="0.46"
   version="1.0"
   sodipodi:docname="Glagolitic ljudi.svg"
   inkscape:output_extension="org.inkscape.output.svg.inkscape">
  <defs
     id="defs4">
    <inkscape:perspective
       sodipodi:type="inkscape:persp3d"
       inkscape:vp_x="0 : 526.18109 : 1"
       inkscape:vp_y="0 : 1000 : 0"
       inkscape:vp_z="744.09448 : 526.18109 : 1"
       inkscape:persp3d-origin="372.04724 : 350.78739 : 1"
       id="perspective10" />
  </defs>
  <sodipodi:namedview
     id="base"
     pagecolor="#ffffff"
     bordercolor="#666666"
     borderopacity="1.0"
     gridtolerance="10000"
     guidetolerance="10"
     objecttolerance="10"
     inkscape:pageopacity="0.0"
     inkscape:pageshadow="2"
     inkscape:zoom="0.35"
     inkscape:cx="587.45097"
     inkscape:cy="177.14286"
     inkscape:document-units="px"
     inkscape:current-layer="layer1"
     showgrid="false"
     inkscape:window-width="1280"
     inkscape:window-height="738"
     inkscape:window-x="-8"
     inkscape:window-y="-8" />
  <metadata
     id="metadata7">
    <rdf:RDF>
      <cc:Work
         rdf:about="">
        <dc:format>image/svg+xml</dc:format>
        <dc:type
           rdf:resource="http://purl.org/dc/dcmitype/StillImage" />
      </cc:Work>
    </rdf:RDF>
  </metadata>
  <g
     inkscape:label="Layer 1"
     inkscape:groupmode="layer"
     id="layer1">
    <path
       style="fill:#000000;stroke-width:42;stroke-miterlimit:4;stroke-dasharray:none"
       d="M 516.17941,607.94615 C 472.57647,594.5717 447.18689,565.10644 434.7355,513.42858 C 430.89029,497.47018 429.55458,479.05392 429.50255,441.28572 L 429.43259,390.57144 L 386.81649,390.57144 L 344.2005,390.57144 L 344.78917,452.7143 C 345.29432,506.03067 344.60014,517.2747 339.90206,531.87798 C 322.15297,587.04804 294.09312,607.07632 230.6331,609.87104 C 192.84278,611.53532 172.29009,607.89807 144.71229,594.66555 C 92.228178,569.48227 63.473842,512.6233 68.131181,443.23321 C 72.129037,383.67047 90.204405,351.04838 128.53552,334.21732 C 141.31141,328.60744 152.24913,326.67444 182.41405,324.69544 C 203.23063,323.32975 225.48686,322.16455 231.87222,322.10615 L 243.48193,322.00001 L 241.64972,292.7143 C 238.9049,248.84121 244.15474,135.49838 249.88774,114.85715 C 261.3357,73.639573 285.45223,43.247343 317.91781,29.1238 C 352.46552,14.094571 402.38993,14.141 433.43868,29.231314 C 492.55428,57.962743 523.57832,149.9851 514.13023,268.57538 C 512.22743,292.4589 510.67923,314.06541 510.68976,316.58978 C 510.70634,320.53381 517.10078,321.40218 556.13785,322.76175 C 614.31862,324.7881 634.45303,330.28184 657.3918,350.38941 C 674.80516,365.65364 687.26718,386.86635 693.04335,411.0753 C 698.40288,433.53787 697.49433,488.2469 691.39109,510.57144 C 677.72859,560.54652 644.64212,596.18495 600.14043,608.86018 C 578.42758,615.04458 537.88235,614.60321 516.17951,607.94618 L 516.17941,607.94615 z M 223.1523,535.07695 C 236.1143,529.88252 250.37705,511.00632 256.43055,491.03452 C 263.20493,468.68421 260.98329,430.70698 251.84184,412.59541 C 242.5248,394.13604 234.28301,390.57144 200.91967,390.57144 L 173.83363,390.57144 L 159.38694,403.53215 C 139.46697,421.40312 131.10507,440.30072 130.98727,467.7143 C 130.90777,486.19278 132.10455,491.2369 139.67958,504.35315 C 149.49667,521.35164 159.74745,529.54415 178.07992,535.04315 C 194.6408,540.01075 210.81058,540.02287 223.15238,535.07695 L 223.1523,535.07695 z M 598.24994,529.48387 C 632.08793,510.46421 643.0004,479.17044 629.93845,438.61004 C 623.23789,417.80298 608.51222,399.42001 592.8267,392.28107 C 581.74846,387.23907 550.23844,388.04941 534.34378,393.78515 C 526.70068,396.54321 512.46359,416.75587 504.40771,436.28572 C 497.90171,452.05815 499.25692,489.55172 506.83454,503.42858 C 515.08548,518.53835 526.34452,529.87381 538.24957,535.05687 C 552.92415,541.44572 581.72823,538.77027 598.24994,529.48384 L 598.24994,529.48387 z M 439.27865,319.85715 C 439.314,318.67858 441.28551,297.14287 443.65989,272.00001 C 451.35949,190.46715 448.8013,148.39858 434.40697,119.83341 C 423.68187,98.549743 410.42557,89.656713 387.32133,88.245683 C 370.95519,87.246143 367.89758,87.939853 359.7755,94.494743 C 337.15869,112.74732 330.28307,150.63758 333.02164,241.9291 C 334.08356,277.32521 335.77867,309.82144 336.78866,314.14287 L 338.62515,322.00001 L 388.91979,322.00001 C 416.58188,322.00001 439.24341,321.03572 439.27865,319.85715 L 439.27865,319.85715 z"
       id="path2723" />
  </g>
</svg>
