<svg xmlns="http://www.w3.org/2000/svg" viewBox="0 0 512 512"><path d="M 205 59 204 60 190 60 189 61 183 61 182 62 180 62 180 63 179 64 179 66 178 67 178 70 177 71 177 74 176 75 176 78 175 79 175 82 174 83 174 86 173 87 173 89 172 90 172 93 171 94 171 97 170 98 170 101 169 102 169 105 168 106 168 109 167 110 167 112 166 113 166 116 165 117 165 120 164 121 164 124 163 125 163 128 162 129 162 132 161 133 161 135 160 136 160 139 159 140 159 143 158 144 158 147 157 148 157 151 156 152 156 154 155 155 155 158 154 159 154 162 153 163 153 166 152 167 152 170 151 171 151 174 150 175 150 177 149 178 149 181 148 182 148 185 147 186 147 189 146 190 146 193 145 194 145 197 144 198 144 200 143 201 143 204 142 205 142 208 141 209 141 212 140 213 140 216 139 217 139 220 138 221 138 223 137 224 137 227 136 228 136 231 135 232 135 235 134 236 134 239 133 240 133 242 132 243 132 246 131 247 131 250 130 251 130 254 129 255 129 258 128 259 128 262 127 263 127 265 126 266 126 269 125 270 125 273 124 274 124 277 123 278 123 281 122 282 122 285 121 286 121 288 120 289 120 292 119 293 119 296 118 297 118 300 117 301 117 304 116 305 116 308 115 309 115 311 114 312 114 315 113 316 113 319 112 320 112 323 111 324 111 327 110 328 110 331 109 332 109 334 108 335 108 338 107 339 107 342 106 343 106 346 105 347 105 350 104 351 104 353 103 354 103 357 102 358 102 361 101 362 101 365 100 366 100 369 99 370 99 373 98 374 98 376 97 377 97 380 96 381 96 384 95 385 95 388 94 389 94 392 93 393 93 396 92 397 92 399 91 400 91 403 90 404 90 407 89 408 89 411 88 412 88 415 87 416 87 419 86 420 86 422 85 423 85 426 84 427 84 430 83 431 83 434 82 435 82 438 81 439 81 441 80 442 80 444 81 445 82 445 83 446 85 446 86 447 89 447 90 448 93 448 94 449 99 449 100 450 108 450 109 451 153 451 154 450 161 450 162 449 166 449 167 448 170 448 171 447 173 447 174 446 176 446 177 445 178 445 179 444 180 444 186 438 186 436 187 435 187 432 188 431 188 428 189 427 189 424 190 423 190 419 191 418 191 415 192 414 192 411 193 410 193 407 194 406 194 402 195 401 195 398 196 397 196 394 197 393 197 390 198 389 198 385 199 384 199 381 200 380 200 377 201 376 201 372 202 371 202 368 203 367 203 365 204 364 292 364 293 365 293 368 294 369 294 372 295 373 295 376 296 377 296 379 297 380 297 383 298 384 298 387 299 388 299 391 300 392 300 395 301 396 301 399 302 400 302 403 303 404 303 407 304 408 304 411 305 412 305 415 306 416 306 419 307 420 307 423 308 424 308 426 309 427 309 430 310 431 310 434 311 435 311 438 312 439 312 440 317 445 318 445 319 446 320 446 321 447 322 447 323 448 325 448 326 449 329 449 330 450 334 450 335 451 341 451 342 452 388 452 389 451 402 451 403 450 412 450 413 449 420 449 421 448 425 448 426 447 428 447 429 446 430 446 431 445 431 443 430 442 430 439 429 438 429 435 428 434 428 431 427 430 427 427 426 426 426 423 425 422 425 420 424 419 424 416 423 415 423 412 422 411 422 408 421 407 421 404 420 403 420 400 419 399 419 396 418 395 418 392 417 391 417 388 416 387 416 384 415 383 415 380 414 379 414 376 413 375 413 372 412 371 412 369 411 368 411 365 410 364 410 361 409 360 409 357 408 356 408 353 407 352 407 349 406 348 406 345 405 344 405 341 404 340 404 337 403 336 403 333 402 332 402 329 401 328 401 325 400 324 400 322 399 321 399 318 398 317 398 314 397 313 397 310 396 309 396 306 395 305 395 302 394 301 394 298 393 297 393 294 392 293 392 290 391 289 391 286 390 285 390 282 389 281 389 278 388 277 388 274 387 273 387 271 386 270 386 267 385 266 385 263 384 262 384 259 383 258 383 255 382 254 382 251 381 250 381 247 380 246 380 243 379 242 379 239 378 238 378 235 377 234 377 231 376 230 376 227 375 226 375 224 374 223 374 220 373 219 373 216 372 215 372 212 371 211 371 208 370 207 370 204 369 203 369 200 368 199 368 196 367 195 367 192 366 191 366 188 365 187 365 184 364 183 364 180 363 179 363 176 362 175 362 173 361 172 361 169 360 168 360 165 359 164 359 161 358 160 358 157 357 156 357 153 356 152 356 149 355 148 355 145 354 144 354 141 353 140 353 137 352 136 352 133 351 132 351 129 350 128 350 126 349 125 349 122 348 121 348 118 347 117 347 114 346 113 346 110 345 109 345 106 344 105 344 102 343 101 343 98 342 97 342 94 341 93 341 90 340 89 340 86 339 85 339 82 338 81 338 79 337 78 337 75 336 74 336 71 335 70 335 67 334 66 334 63 333 62 331 62 330 61 325 61 324 60 310 60 309 59 Z" fill="blue" /></svg>